<mxfile host="app.diagrams.net" modified="2021-12-13T10:15:25.417Z" agent="5.0 (X11)" etag="M4f_75PvTbde2Y3RHIrD" version="15.9.4" type="github">
  <diagram id="Fhmb-j94QfxsOFY8xWYQ" name="Page-1">
    <mxGraphModel dx="1422" dy="725" grid="1" gridSize="10" guides="1" tooltips="1" connect="1" arrows="1" fold="1" page="1" pageScale="1" pageWidth="850" pageHeight="1100" math="0" shadow="0">
      <root>
        <mxCell id="0" />
        <mxCell id="1" parent="0" />
        <mxCell id="9JaoaTqJArMM6nA5KHCR-1" value="CARD database" style="rounded=0;whiteSpace=wrap;html=1;" parent="1" vertex="1">
          <mxGeometry x="90" y="140" width="120" height="60" as="geometry" />
        </mxCell>
        <mxCell id="q0POvncIThJ6YeY0gYpB-7" style="edgeStyle=orthogonalEdgeStyle;rounded=0;orthogonalLoop=1;jettySize=auto;html=1;exitX=1;exitY=0.5;exitDx=0;exitDy=0;" edge="1" parent="1" source="9JaoaTqJArMM6nA5KHCR-2">
          <mxGeometry relative="1" as="geometry">
            <mxPoint x="290" y="350" as="targetPoint" />
          </mxGeometry>
        </mxCell>
        <mxCell id="9JaoaTqJArMM6nA5KHCR-2" value="kmerFinder database" style="rounded=0;whiteSpace=wrap;html=1;" parent="1" vertex="1">
          <mxGeometry x="80" y="320" width="120" height="60" as="geometry" />
        </mxCell>
        <mxCell id="q0POvncIThJ6YeY0gYpB-4" style="edgeStyle=orthogonalEdgeStyle;rounded=0;orthogonalLoop=1;jettySize=auto;html=1;" edge="1" parent="1" source="9JaoaTqJArMM6nA5KHCR-3">
          <mxGeometry relative="1" as="geometry">
            <mxPoint x="290" y="470" as="targetPoint" />
          </mxGeometry>
        </mxCell>
        <mxCell id="9JaoaTqJArMM6nA5KHCR-3" value="fastqScreen database" style="rounded=0;whiteSpace=wrap;html=1;" parent="1" vertex="1">
          <mxGeometry x="80" y="440" width="120" height="60" as="geometry" />
        </mxCell>
        <mxCell id="q0POvncIThJ6YeY0gYpB-2" value="&lt;div&gt;Raw fastq files&lt;br&gt;&lt;/div&gt;" style="rounded=1;whiteSpace=wrap;html=1;" vertex="1" parent="1">
          <mxGeometry x="230" y="520" width="120" height="60" as="geometry" />
        </mxCell>
        <mxCell id="q0POvncIThJ6YeY0gYpB-3" value="" style="endArrow=classic;html=1;rounded=0;exitX=0.5;exitY=0;exitDx=0;exitDy=0;" edge="1" parent="1" source="q0POvncIThJ6YeY0gYpB-2">
          <mxGeometry width="50" height="50" relative="1" as="geometry">
            <mxPoint x="400" y="400" as="sourcePoint" />
            <mxPoint x="290" y="440" as="targetPoint" />
            <Array as="points">
              <mxPoint x="290" y="470" />
            </Array>
          </mxGeometry>
        </mxCell>
        <mxCell id="q0POvncIThJ6YeY0gYpB-6" style="edgeStyle=orthogonalEdgeStyle;rounded=0;orthogonalLoop=1;jettySize=auto;html=1;exitX=0.5;exitY=0;exitDx=0;exitDy=0;" edge="1" parent="1" source="q0POvncIThJ6YeY0gYpB-5">
          <mxGeometry relative="1" as="geometry">
            <mxPoint x="290" y="320" as="targetPoint" />
            <Array as="points">
              <mxPoint x="290" y="330" />
              <mxPoint x="290" y="330" />
            </Array>
          </mxGeometry>
        </mxCell>
        <mxCell id="q0POvncIThJ6YeY0gYpB-5" value="Contamination-free reads (fastq)" style="rounded=1;whiteSpace=wrap;html=1;" vertex="1" parent="1">
          <mxGeometry x="230" y="380" width="120" height="60" as="geometry" />
        </mxCell>
        <mxCell id="q0POvncIThJ6YeY0gYpB-8" value="" style="rounded=1;whiteSpace=wrap;html=1;" vertex="1" parent="1">
          <mxGeometry x="230" y="260" width="120" height="60" as="geometry" />
        </mxCell>
        <mxCell id="q0POvncIThJ6YeY0gYpB-10" style="edgeStyle=orthogonalEdgeStyle;rounded=0;orthogonalLoop=1;jettySize=auto;html=1;exitX=1;exitY=0.5;exitDx=0;exitDy=0;" edge="1" parent="1" target="q0POvncIThJ6YeY0gYpB-11">
          <mxGeometry relative="1" as="geometry">
            <mxPoint x="380" y="349.5" as="targetPoint" />
            <mxPoint x="290" y="349.5" as="sourcePoint" />
          </mxGeometry>
        </mxCell>
        <mxCell id="q0POvncIThJ6YeY0gYpB-11" value="&lt;div&gt;Reference sequence&lt;/div&gt;&lt;div&gt;(Accession number)&lt;br&gt;&lt;/div&gt;" style="rounded=0;whiteSpace=wrap;html=1;" vertex="1" parent="1">
          <mxGeometry x="370" y="320" width="120" height="60" as="geometry" />
        </mxCell>
        <mxCell id="q0POvncIThJ6YeY0gYpB-12" value="&lt;div&gt;Contamination reads&lt;/div&gt;&lt;div&gt;(fastq)&lt;br&gt;&lt;/div&gt;" style="rounded=1;whiteSpace=wrap;html=1;" vertex="1" parent="1">
          <mxGeometry x="370" y="440" width="120" height="60" as="geometry" />
        </mxCell>
        <mxCell id="q0POvncIThJ6YeY0gYpB-13" style="edgeStyle=orthogonalEdgeStyle;rounded=0;orthogonalLoop=1;jettySize=auto;html=1;" edge="1" parent="1">
          <mxGeometry relative="1" as="geometry">
            <mxPoint x="370" y="469.5" as="targetPoint" />
            <mxPoint x="290" y="470" as="sourcePoint" />
            <Array as="points">
              <mxPoint x="330" y="470" />
            </Array>
          </mxGeometry>
        </mxCell>
      </root>
    </mxGraphModel>
  </diagram>
</mxfile>
